<svg xmlns="http://www.w3.org/2000/svg" width="1920" height="1080" viewBox="0 0 1920 1080">
  <rect width="1920" height="1080" fill="#080609"/>
  <defs>
    <pattern id="g" width="60" height="60" patternUnits="userSpaceOnUse">
      <path d="M60 0L0 0 0 60" fill="none" stroke="rgba(200,192,176,0.02)" stroke-width="1"/>
    </pattern>
  </defs>
  <rect width="1920" height="1080" fill="url(#g)"/>
  <line x1="120" y1="0" x2="120" y2="1080" stroke="rgba(200,192,176,0.035)" stroke-width="1"/>
  <line x1="210" y1="0" x2="210" y2="1080" stroke="rgba(200,192,176,0.035)" stroke-width="1"/>
  <line x1="300" y1="0" x2="300" y2="1080" stroke="rgba(200,192,176,0.035)" stroke-width="1"/>
  <line x1="390" y1="0" x2="390" y2="1080" stroke="rgba(200,192,176,0.035)" stroke-width="1"/>
  <line x1="480" y1="0" x2="480" y2="1080" stroke="rgba(200,192,176,0.035)" stroke-width="1"/>
  <line x1="570" y1="0" x2="570" y2="1080" stroke="rgba(200,192,176,0.035)" stroke-width="1"/>
  <line x1="660" y1="0" x2="660" y2="1080" stroke="rgba(200,192,176,0.035)" stroke-width="1"/>
  <line x1="750" y1="0" x2="750" y2="1080" stroke="rgba(200,192,176,0.035)" stroke-width="1"/>
  <line x1="840" y1="0" x2="840" y2="1080" stroke="rgba(200,192,176,0.035)" stroke-width="1"/>
  <line x1="930" y1="0" x2="930" y2="1080" stroke="rgba(200,192,176,0.035)" stroke-width="1"/>
  <line x1="1020" y1="0" x2="1020" y2="1080" stroke="rgba(200,192,176,0.035)" stroke-width="1"/>
  <line x1="1110" y1="0" x2="1110" y2="1080" stroke="rgba(200,192,176,0.035)" stroke-width="1"/>
  <line x1="1200" y1="0" x2="1200" y2="1080" stroke="rgba(200,192,176,0.035)" stroke-width="1"/>
  <line x1="1290" y1="0" x2="1290" y2="1080" stroke="rgba(200,192,176,0.035)" stroke-width="1"/>
  <line x1="1380" y1="0" x2="1380" y2="1080" stroke="rgba(200,192,176,0.035)" stroke-width="1"/>
  <line x1="1470" y1="0" x2="1470" y2="1080" stroke="rgba(200,192,176,0.035)" stroke-width="1"/>
  <line x1="1560" y1="0" x2="1560" y2="1080" stroke="rgba(200,192,176,0.035)" stroke-width="1"/>
  <line x1="1650" y1="0" x2="1650" y2="1080" stroke="rgba(200,192,176,0.035)" stroke-width="1"/>
  <line x1="1740" y1="0" x2="1740" y2="1080" stroke="rgba(200,192,176,0.035)" stroke-width="1"/>
  <line x1="1830" y1="0" x2="1830" y2="1080" stroke="rgba(200,192,176,0.035)" stroke-width="1"/>
  <line x1="0" y1="100" x2="1920" y2="100" stroke="rgba(200,192,176,0.025)" stroke-width="1"/>
  <line x1="0" y1="190" x2="1920" y2="190" stroke="rgba(200,192,176,0.025)" stroke-width="1"/>
  <line x1="0" y1="280" x2="1920" y2="280" stroke="rgba(200,192,176,0.025)" stroke-width="1"/>
  <line x1="0" y1="370" x2="1920" y2="370" stroke="rgba(200,192,176,0.025)" stroke-width="1"/>
  <line x1="0" y1="460" x2="1920" y2="460" stroke="rgba(200,192,176,0.025)" stroke-width="1"/>
  <line x1="0" y1="550" x2="1920" y2="550" stroke="rgba(200,192,176,0.025)" stroke-width="1"/>
  <line x1="0" y1="640" x2="1920" y2="640" stroke="rgba(200,192,176,0.025)" stroke-width="1"/>
  <line x1="0" y1="730" x2="1920" y2="730" stroke="rgba(200,192,176,0.025)" stroke-width="1"/>
  <line x1="0" y1="820" x2="1920" y2="820" stroke="rgba(200,192,176,0.025)" stroke-width="1"/>
  <line x1="0" y1="910" x2="1920" y2="910" stroke="rgba(200,192,176,0.025)" stroke-width="1"/>
  <line x1="0" y1="1000" x2="1920" y2="1000" stroke="rgba(200,192,176,0.025)" stroke-width="1"/>
  <radialGradient id="vig" cx="50%" cy="50%" r="70%">
    <stop offset="0%" stop-color="transparent"/>
    <stop offset="100%" stop-color="rgba(0,0,0,0.75)"/>
  </radialGradient>
  <rect width="1920" height="1080" fill="url(#vig)"/>
  <text x="960" y="1020" font-family="monospace" font-size="10"
    fill="rgba(60,58,54,0.25)" text-anchor="middle" letter-spacing="4">НАДСМОТРЩИК · Концовка III</text>
  <text x="960" y="1040" font-family="monospace" font-size="9"
    fill="rgba(40,38,34,0.18)" text-anchor="middle">замените: assets/images/bg/ending_3_nadsm.jpg</text>
</svg>