<svg xmlns="http://www.w3.org/2000/svg" width="1920" height="1080" viewBox="0 0 1920 1080">
  <rect width="1920" height="1080" fill="#080609"/>
  <defs>
    <pattern id="g" width="60" height="60" patternUnits="userSpaceOnUse">
      <path d="M60 0L0 0 0 60" fill="none" stroke="rgba(200,192,176,0.02)" stroke-width="1"/>
    </pattern>
  </defs>
  <rect width="1920" height="1080" fill="url(#g)"/>
  <rect x="200" y="0" width="18" height="1080" fill="rgba(200,192,176,0.025)"/>
  <rect x="255" y="0" width="18" height="1080" fill="rgba(200,192,176,0.025)"/>
  <rect x="310" y="0" width="18" height="1080" fill="rgba(200,192,176,0.025)"/>
  <rect x="365" y="0" width="18" height="1080" fill="rgba(200,192,176,0.025)"/>
  <rect x="420" y="0" width="18" height="1080" fill="rgba(200,192,176,0.025)"/>
  <rect x="475" y="0" width="18" height="1080" fill="rgba(200,192,176,0.025)"/>
  <rect x="530" y="0" width="18" height="1080" fill="rgba(200,192,176,0.025)"/>
  <rect x="585" y="0" width="18" height="1080" fill="rgba(200,192,176,0.025)"/>
  <rect x="640" y="0" width="18" height="1080" fill="rgba(200,192,176,0.025)"/>
  <rect x="695" y="0" width="18" height="1080" fill="rgba(200,192,176,0.025)"/>
  <rect x="750" y="0" width="18" height="1080" fill="rgba(200,192,176,0.025)"/>
  <rect x="805" y="0" width="18" height="1080" fill="rgba(200,192,176,0.025)"/>
  <rect x="860" y="0" width="18" height="1080" fill="rgba(200,192,176,0.025)"/>
  <rect x="915" y="0" width="18" height="1080" fill="rgba(200,192,176,0.025)"/>
  <rect x="970" y="0" width="18" height="1080" fill="rgba(200,192,176,0.025)"/>
  <rect x="1025" y="0" width="18" height="1080" fill="rgba(200,192,176,0.025)"/>
  <rect x="1080" y="0" width="18" height="1080" fill="rgba(200,192,176,0.025)"/>
  <rect x="1135" y="0" width="18" height="1080" fill="rgba(200,192,176,0.025)"/>
  <rect x="1190" y="0" width="18" height="1080" fill="rgba(200,192,176,0.025)"/>
  <rect x="1245" y="0" width="18" height="1080" fill="rgba(200,192,176,0.025)"/>
  <rect x="1300" y="0" width="18" height="1080" fill="rgba(200,192,176,0.025)"/>
  <rect x="1355" y="0" width="18" height="1080" fill="rgba(200,192,176,0.025)"/>
  <rect x="1410" y="0" width="18" height="1080" fill="rgba(200,192,176,0.025)"/>
  <rect x="1465" y="0" width="18" height="1080" fill="rgba(200,192,176,0.025)"/>
  <rect x="1520" y="0" width="18" height="1080" fill="rgba(200,192,176,0.025)"/>
  <rect x="1575" y="0" width="18" height="1080" fill="rgba(200,192,176,0.025)"/>
  <rect x="1630" y="0" width="18" height="1080" fill="rgba(200,192,176,0.025)"/>
  <rect x="1685" y="0" width="18" height="1080" fill="rgba(200,192,176,0.025)"/>
  <rect x="1740" y="0" width="18" height="1080" fill="rgba(200,192,176,0.025)"/>
  <rect x="1795" y="0" width="18" height="1080" fill="rgba(200,192,176,0.025)"/>
  <ellipse cx="960" cy="420" rx="60" ry="70" fill="rgba(140,135,170,0.08)" stroke="rgba(200,192,176,0.05)" stroke-width="1"/>
  <radialGradient id="vig" cx="50%" cy="50%" r="70%">
    <stop offset="0%" stop-color="transparent"/>
    <stop offset="100%" stop-color="rgba(0,0,0,0.75)"/>
  </radialGradient>
  <rect width="1920" height="1080" fill="url(#vig)"/>
  <text x="960" y="1020" font-family="monospace" font-size="10"
    fill="rgba(60,58,54,0.25)" text-anchor="middle" letter-spacing="4">БЕЗУМИЕ · Концовка VI</text>
  <text x="960" y="1040" font-family="monospace" font-size="9"
    fill="rgba(40,38,34,0.18)" text-anchor="middle">замените: assets/images/bg/ending_6_bezumie.jpg</text>
</svg>