<svg xmlns="http://www.w3.org/2000/svg" width="1920" height="1080" viewBox="0 0 1920 1080">
  <rect width="1920" height="1080" fill="#060609"/>
  <defs>
    <pattern id="g" width="60" height="60" patternUnits="userSpaceOnUse">
      <path d="M60 0L0 0 0 60" fill="none" stroke="rgba(200,192,176,0.02)" stroke-width="1"/>
    </pattern>
  </defs>
  <rect width="1920" height="1080" fill="url(#g)"/>
  <circle cx="960" cy="480" r="50" fill="none" stroke="rgba(180,175,210,0.022)" stroke-width="1"/>
  <circle cx="960" cy="480" r="105" fill="none" stroke="rgba(180,175,210,0.023)" stroke-width="1"/>
  <circle cx="960" cy="480" r="160" fill="none" stroke="rgba(180,175,210,0.025)" stroke-width="1"/>
  <circle cx="960" cy="480" r="215" fill="none" stroke="rgba(180,175,210,0.026)" stroke-width="1"/>
  <circle cx="960" cy="480" r="270" fill="none" stroke="rgba(180,175,210,0.028)" stroke-width="1"/>
  <circle cx="960" cy="480" r="325" fill="none" stroke="rgba(180,175,210,0.030)" stroke-width="1"/>
  <circle cx="960" cy="480" r="380" fill="none" stroke="rgba(180,175,210,0.031)" stroke-width="1"/>
  <circle cx="960" cy="480" r="435" fill="none" stroke="rgba(180,175,210,0.033)" stroke-width="1"/>
  <circle cx="960" cy="480" r="490" fill="none" stroke="rgba(180,175,210,0.035)" stroke-width="1"/>
  <circle cx="960" cy="480" r="545" fill="none" stroke="rgba(180,175,210,0.036)" stroke-width="1"/>
  <circle cx="960" cy="480" r="600" fill="none" stroke="rgba(180,175,210,0.038)" stroke-width="1"/>
  <line x1="960" y1="0" x2="960" y2="1080" stroke="rgba(180,175,210,0.04)" stroke-width="1"/>
  <line x1="0" y1="480" x2="1920" y2="480" stroke="rgba(180,175,210,0.03)" stroke-width="1"/>
  <radialGradient id="vig" cx="50%" cy="50%" r="70%">
    <stop offset="0%" stop-color="transparent"/>
    <stop offset="100%" stop-color="rgba(0,0,0,0.75)"/>
  </radialGradient>
  <rect width="1920" height="1080" fill="url(#vig)"/>
  <text x="960" y="1020" font-family="monospace" font-size="10"
    fill="rgba(60,58,54,0.25)" text-anchor="middle" letter-spacing="4">ТИХОЕ ТЕЧЕНИЕ · Концовка V</text>
  <text x="960" y="1040" font-family="monospace" font-size="9"
    fill="rgba(40,38,34,0.18)" text-anchor="middle">замените: assets/images/bg/ending_5_techenie.jpg</text>
</svg>