<svg xmlns="http://www.w3.org/2000/svg" width="1920" height="1080" viewBox="0 0 1920 1080">
  <rect width="1920" height="1080" fill="#020204"/>
  <defs>
    <pattern id="g" width="80" height="80" patternUnits="userSpaceOnUse">
      <path d="M80 0L0 0 0 80" fill="none" stroke="#0d0d1a" stroke-width="1"/>
    </pattern>
  </defs>
  <rect width="1920" height="1080" fill="url(#g)"/>
  <g opacity="0.1" stroke="rgba(200,192,176,0.5)" stroke-width="1.5" fill="none">
    <rect x="1100" y="120" width="280" height="160" rx="2"/>
    <rect x="1100" y="320" width="280" height="200" rx="2"/>
    <rect x="1100" y="570" width="280" height="160" rx="2"/>
    <rect x="1100" y="780" width="280" height="120" rx="2"/>
    <rect x="680" y="270" width="260" height="480" rx="2"/>
  </g>
  <g opacity="0.05" stroke="rgba(200,192,176,0.5)" stroke-width="1">
    <line x1="940" y1="540" x2="1100" y2="410"/>
    <line x1="940" y1="540" x2="1100" y2="645"/>
    <line x1="940" y1="540" x2="1100" y2="840"/>
    <line x1="940" y1="200" x2="1100" y2="200"/>
    <line x1="1240" y1="320" x2="1240" y2="280"/>
    <line x1="1240" y1="520" x2="1240" y2="570"/>
  </g>
  <g font-family="monospace" font-size="11" fill="rgba(200,192,176,0.1)" text-anchor="middle" letter-spacing="2">
    <text x="1240" y="207">СЕКТОР А</text>
    <text x="1240" y="427">СЕКТОР Б</text>
    <text x="1240" y="658">СЕКТОР В</text>
    <text x="1240" y="848">СЕКТОР Г</text>
    <text x="810" y="520">ЖИЛ. БЛОК</text>
  </g>
  <circle cx="1240" cy="840" r="3" fill="rgba(139,26,26,0.3)"/>
  <text x="960" y="1055" font-family="monospace" font-size="9" fill="rgba(40,38,34,0.3)" text-anchor="middle" letter-spacing="3">ЗАГЛУШКА МЕНЮ — замените: assets/images/bg/menu_bg.jpg</text>
</svg>